<?xml version="1.0" encoding="utf-8"?>
<!-- Generator: Adobe Illustrator 20.1.0, SVG Export Plug-In . SVG Version: 6.00 Build 0)  -->
<!DOCTYPE svg PUBLIC "-//W3C//DTD SVG 1.1//EN" "http://www.w3.org/Graphics/SVG/1.1/DTD/svg11.dtd">
<svg version="1.1" id="Layer_2" xmlns="http://www.w3.org/2000/svg" xmlns:xlink="http://www.w3.org/1999/xlink" x="0px" y="0px"
	 viewBox="0 0 206.5 222.5" enable-background="new 0 0 206.5 222.5" xml:space="preserve">
<path d="M78.2,73.7c0.3,0,0.5-0.1,0.7-0.3l8.4-8.5c0.4-0.4,0.4-1,0-1.4c-0.4-0.4-1-0.4-1.4,0L77.5,72c-0.4,0.4-0.4,1,0,1.4
	C77.7,73.6,78,73.7,78.2,73.7z"/>
<path d="M81.5,54c-0.3-0.5-0.9-0.6-1.4-0.3L69,60.2c-0.5,0.3-0.6,0.9-0.3,1.4c0.2,0.3,0.5,0.5,0.9,0.5c0.2,0,0.3,0,0.5-0.1l11.1-6.6
	C81.6,55.1,81.7,54.4,81.5,54z"/>
<path d="M64.5,48.9c0,0,0.1,0,0.1,0l12.2-1.8c0.5-0.1,0.9-0.6,0.8-1.1c-0.1-0.5-0.6-0.9-1.1-0.8l-12.2,1.8c-0.5,0.1-0.9,0.6-0.8,1.1
	C63.5,48.5,64,48.9,64.5,48.9z"/>
<path d="M64.3,34.8l12.2,2.4c0.1,0,0.1,0,0.2,0c0.5,0,0.9-0.3,1-0.8c0.1-0.5-0.2-1.1-0.8-1.2l-12.2-2.4c-0.5-0.1-1.1,0.2-1.2,0.8
	C63.4,34.2,63.7,34.7,64.3,34.8z"/>
<path d="M68.4,21.6l11.7,7.2c0.2,0.1,0.3,0.1,0.5,0.1c0.3,0,0.7-0.2,0.9-0.5c0.3-0.5,0.1-1.1-0.3-1.4l-11.7-7.2
	c-0.5-0.3-1.1-0.1-1.4,0.3C67.8,20.7,68,21.3,68.4,21.6z"/>
<path d="M84.9,19.3c0.2,0.2,0.5,0.3,0.7,0.3c0.2,0,0.5-0.1,0.7-0.3c0.4-0.4,0.4-1,0-1.4l-7.9-8.4c-0.4-0.4-1-0.4-1.4,0s-0.4,1,0,1.4
	L84.9,19.3z"/>
<path d="M92.8,14.6c0.2,0.4,0.5,0.6,0.9,0.6c0.1,0,0.3,0,0.4-0.1c0.5-0.2,0.7-0.8,0.5-1.3L89.6,3.3c-0.2-0.5-0.8-0.7-1.3-0.5
	c-0.5,0.2-0.7,0.8-0.5,1.3L92.8,14.6z"/>
<path d="M103,13.4c0.6,0,1-0.4,1-1V1c0-0.6-0.4-1-1-1s-1,0.4-1,1v11.4C102,12.9,102.4,13.4,103,13.4z"/>
<path d="M112.1,15.1c0.1,0.1,0.3,0.1,0.4,0.1c0.4,0,0.7-0.2,0.9-0.6l4.8-10.5c0.2-0.5,0-1.1-0.5-1.3c-0.5-0.2-1.1,0-1.3,0.5
	l-4.8,10.5C111.4,14.2,111.6,14.8,112.1,15.1z"/>
<path d="M120.9,19.6c0.3,0,0.5-0.1,0.7-0.3l8.1-8.4c0.4-0.4,0.4-1,0-1.4c-0.4-0.4-1-0.4-1.4,0l-8.1,8.4c-0.4,0.4-0.4,1,0,1.4
	C120.4,19.5,120.7,19.6,120.9,19.6z"/>
<path d="M127,28.4c0.2,0.3,0.5,0.4,0.8,0.4c0.2,0,0.4-0.1,0.6-0.2l10.8-7.2c0.5-0.3,0.6-0.9,0.3-1.4c-0.3-0.5-0.9-0.6-1.4-0.3
	l-10.8,7.2C126.8,27.4,126.7,28,127,28.4z"/>
<path d="M129.5,36.5c0.1,0.5,0.5,0.8,1,0.8c0.1,0,0.1,0,0.2,0l11.7-2.4c0.5-0.1,0.9-0.6,0.8-1.2c-0.1-0.5-0.6-0.9-1.2-0.8l-11.7,2.4
	C129.7,35.4,129.4,35.9,129.5,36.5z"/>
<path d="M131.3,46c-0.1,0.5,0.3,1.1,0.8,1.1l11.4,1.8c0.1,0,0.1,0,0.2,0c0.5,0,0.9-0.4,1-0.8c0.1-0.5-0.3-1.1-0.8-1.1l-11.4-1.8
	C131.9,45,131.4,45.4,131.3,46z"/>
<path d="M138.5,62c0.3,0,0.7-0.2,0.9-0.5c0.3-0.5,0.1-1.1-0.4-1.4l-11.4-6.6c-0.5-0.3-1.1-0.1-1.4,0.4c-0.3,0.5-0.1,1.1,0.4,1.4
	l11.4,6.6C138.2,62,138.4,62,138.5,62z"/>
<path d="M121.4,63.5c-0.4,0.4-0.5,1-0.1,1.4l7.5,8.5c0.2,0.2,0.5,0.3,0.7,0.3c0.2,0,0.5-0.1,0.7-0.3c0.4-0.4,0.5-1,0.1-1.4l-7.5-8.5
	C122.5,63.2,121.8,63.1,121.4,63.5z"/>
<path d="M90.5,64.8c2,3.4,3.6,6.2,3.7,7.3c0.3,3.6,0.5,5.4,0.5,5.4c0,0.3,0.2,0.4,0.5,0.4H113c0.3,0,0.5-0.2,0.5-0.4
	c0,0,0.2-1.8,0.5-5.4c0.1-1.1,1.8-4,3.7-7.3c4.2-7.2,10-17.1,10-25c0-11.6-9.7-21.6-22.2-22.8c-0.1-0.1-0.2-0.1-0.3-0.1
	c-0.4,0-0.7,0-1.1,0c-0.4,0-0.7,0-1.1,0c-0.1,0-0.2,0.1-0.3,0.1c-12.5,1.2-22.2,11.1-22.2,22.8C80.5,47.7,86.3,57.6,90.5,64.8z
	 M103,18c0.1,0,0.2,0,0.2-0.1c0.3,0,0.6,0,0.9,0c0.3,0,0.5,0,0.8,0c0.1,0.1,0.2,0.1,0.3,0.1c12.1,1,21.5,10.6,21.5,21.8
	c0,7.6-5.9,17.7-9.9,24.5c-2.2,3.7-3.8,6.4-3.9,7.8c-0.2,2.5-0.4,4.2-0.5,4.9H95.7c-0.1-0.7-0.2-2.4-0.5-4.9c-0.1-1.3-1.7-4-3.9-7.8
	c-3.9-6.7-9.9-16.9-9.9-24.5C81.5,28.6,91,19.1,103,18z"/>
<rect x="94.3" y="79.1" width="19.1" height="4"/>
<path d="M96.2,71.9c0.3,3.4,0.5,4.1,0.5,4.1h7.2h0.5h7.2c0,0,0.2-0.7,0.5-4.1c0.3-3.4,14.1-20.6,14.1-31.7
	c0-10.5-8.9-20.2-20.9-21.2l0-0.1h-2.1l0,0.1c-12,1-20.9,10.7-20.9,21.2C82.2,51.3,95.9,68.5,96.2,71.9z M112.2,58.1l-5.8,8v9.6h-1
	V65.5l6.1-8.5L112.2,58.1z M96.6,46.5h14.5v1H96.6V46.5z M96.6,50.5h14.5v1H96.6V50.5z M96.6,54.5h14.5v1H96.6V54.5z M96.7,57
	l6.2,8.5v10.3h-1v-9.6l-5.8-8L96.7,57z"/>
<path d="M160.6,148c0,0.9,0.1,1.7,0.9,1.7l3.6,0v-10.2l-5.2-6.5h13.9l-5.1,6.5l-0.1,10.2l3.8,0c0.9,0,0.9-0.5,0.9-1.4l0.1-3.8
	c0-3.5,1.2-6.7,3.8-9.1c2.9-2.8,5.2-7.2,5.2-11.6c0-8.7-7.2-15.2-15.9-14.8c-7.8,0.4-13.8,6.8-14.1,14.6c-0.2,4.4,2.4,8.7,5.2,11.6
	c2.5,2.5,3.2,5.7,3.2,9.2L160.6,148z"/>
<polygon points="162,133.9 166.1,139.1 166.1,149.7 167.7,149.6 167.8,139.1 171.8,133.9 "/>
<path d="M159.8,150.4c0.4,0.4,1,0.6,1.5,0.6h11.4c1.2,0,2.2-1,2.2-2.2v-3.8c0-3.6,1.4-7.1,3.9-9.4c3.3-3.1,5.1-7.3,5.1-11.9
	c0-4.5-1.8-8.8-5.1-11.9c-3.3-3.1-7.6-4.7-12.2-4.5c-8.4,0.4-15.3,7.3-15.7,15.7c-0.2,4.6,1.4,8.9,4.6,12.2c2.4,2.4,3.7,5.9,3.7,9.6
	l0,4C159.2,149.5,159.4,150,159.8,150.4z M156.3,134.5c-3-3.1-4.5-7.2-4.3-11.4c0.4-7.9,6.8-14.4,14.7-14.7c0.2,0,0.5,0,0.7,0
	c4,0,7.8,1.5,10.7,4.3c3.1,2.9,4.8,6.9,4.8,11.2c0,4.2-1.7,8.2-4.8,11.1c-2.7,2.5-4.2,6.2-4.2,10.1v3.8c0,0.6-0.5,1.2-1.2,1.2h-11.4
	c-0.3,0-0.6-0.1-0.8-0.3s-0.3-0.5-0.3-0.8l0-4C160.3,140.9,158.9,137.2,156.3,134.5z"/>
<path d="M168,52.3l0.1-3.2c0-2.9,1.1-5.5,3.4-7.5c2.6-2.3,4.7-6,4.7-9.6c0-7.2-6.4-12.6-14.3-12.2c-7,0.3-12.4,5.6-12.7,12.1
	c-0.2,3.6,2.1,7.2,4.7,9.6c2.2,2.1,2.9,4.7,2.9,7.6l-0.1,3.1c0,0.7,0,1.4,0.8,1.4l3.2,0V45l-4.6-5.4h12.4l-4.6,5.4l-0.1,8.4l3.4,0
	C167.9,53.5,168,53,168,52.3z"/>
<polygon points="157.8,40.5 161.5,44.8 161.5,53.5 162.9,53.5 162.9,44.8 166.6,40.5 "/>
<path d="M72,104.4v-7.2l-3.9-4.6h10.5l-3.9,4.6l0,7.1l2.9,0c0.7,0,0.7-0.4,0.7-1l0-2.7c0-2.5,0.9-4.7,2.8-6.4
	c2.2-1.9,3.9-5.1,3.9-8.1c0-6.1-5.4-10.6-12.1-10.4c-5.9,0.3-10.5,4.8-10.7,10.2c-0.1,3.1,1.8,6.1,3.9,8.1c1.9,1.8,2.4,4,2.4,6.4
	l0,2.6c0,0.6,0,1.2,0.7,1.2L72,104.4z"/>
<polygon points="69.7,93.4 72.8,97 72.8,104.4 74,104.4 74,97 77.1,93.4 "/>
<path d="M186.8,108.2h4.2v0.9h-2.8v1h2.8v1h-1.9v1h1.9v48.8c0,1.7-0.5,3-1.4,3.9c-1.7,1.5-4.3,1.4-4.4,1.3h-15.9v-5.3h1.6v-1h-1.6
	v-1.6h2.6v-1h-2.6c-0.1-0.5-0.4-1-0.8-1.3h5.6v-4.6h-13.7v4.6h5.8c-0.4,0.3-0.7,0.8-0.8,1.3h-3.3v1h3.3v1.6h-2.2v1h2.2v5.3h-36.7
	v-14.4l6.1,0c0.1,0,3.1,0.2,4.9-1.5c0.8-0.8,1.3-1.8,1.3-3.1V130h1.1v-1h-1.1v-0.5h1.7v-1h-1.7V127h3v-2.6h-0.1c0.6-0.2,1-0.7,1-1.3
	v-2.2c0-2,0.8-3.9,2.3-5.2c2.1-1.8,3.2-4.3,3.2-6.9c0-2.5-1-4.9-2.9-6.7c-2.1-2-5-3-8-2.9c-5.3,0.2-9.7,4.3-9.9,9.2
	c-0.1,2.7,0.9,5.2,2.9,7.1c1.4,1.4,2.2,3.3,2.2,5.3l0,2.3c0,0.4,0.1,0.7,0.4,1c0.2,0.2,0.3,0.3,0.5,0.3h-0.1v2.6h3.4v0.5h-2.4v1h2.4
	v0.5h-1.7v1h1.7v17.1c0,0.7-0.2,1.2-0.6,1.6c-0.9,0.9-2.8,1-3.4,1h-6.2v-14.5c0-1.7-1-4.9-4.6-4.9h-6.2v-29.8c0-0.3,0.1-6.2,8-6.2
	c2.9,0,6.2,0,9.6,0.1c7.3,0.1,14.9,0.1,20-0.1c6.7-0.3,8.4-5.7,8.4-8.5v-23h1.9v-1h-1.9v-1.2h2.8v-1h-2.8v-1h4.7v-3.8h-5.2
	c0,0-0.1-0.1-0.1-0.1h4.3c1.1,0,2-0.8,2-1.9v-3.2c0-3,1.3-5.8,3.4-7.7c3-2.6,4.6-6.1,4.6-9.9c0-3.6-1.5-6.9-4.2-9.5
	c-3-2.8-7.1-4.4-11.4-4.2c-7.6,0.3-13.8,6.1-14.1,13.1c-0.2,3.8,1.3,7.4,4.2,10.2c2.1,2,3.3,4.8,3.3,7.9l0,3.3
	c0,0.5,0.2,0.9,0.5,1.3c0.4,0.4,0.9,0.6,1.5,0.6h5.2c0,0-0.1,0-0.1,0.1h-6.1v3.8h5.6v1h-4v1h4v1.2h-3v1h3v23c0,0.3-0.1,6.2-6.5,6.5
	c-5,0.2-12.6,0.1-19.9,0.1c-3.4,0-6.8-0.1-9.7-0.1c-9.8,0-10,8.1-10,8.2v29.8h-8.6V90h3.1v-3h-3.6c-0.1-0.1-0.2-0.2-0.2-0.3h6.1v-3
	H95.7v3h7.1c-0.1,0.1-0.2,0.2-0.2,0.3h-4.3v3h3.8v40.2h-6.8v-8.6c0-2-1.2-5.8-5.8-5.8H75.1v-3.5h1.2v-1h-1.2v-0.8h2v-1h-2
	c0-0.3-0.1-0.5-0.2-0.8h3.8v-3.2H78c0.9-0.1,1.6-0.8,1.6-1.6v-2.7c0-2.5,1.1-4.8,2.9-6.5c2.5-2.2,3.9-5.2,3.9-8.4
	c0-3-1.3-5.9-3.5-8.1c-2.5-2.4-6.1-3.7-9.7-3.6c-6.5,0.3-11.7,5.2-12,11.1c-0.2,3.2,1.1,6.3,3.5,8.7c1.8,1.7,2.8,4.1,2.7,6.6l0,2.8
	c0,0.4,0.2,0.8,0.5,1.1c0.3,0.3,0.7,0.5,1.1,0.5h-0.7v3.2h3.1c-0.1,0.2-0.2,0.5-0.2,0.8h-1.6v1h1.5v0.8h-0.7v1h0.7v3.5H48.7v-43h1
	v-1h-1.4c-0.2-0.1-0.3-0.2-0.5-0.2s-0.4,0.1-0.5,0.2h-1.9v1h1.5v43H17c-3.1,0-3.2-4.5-3.2-4.7v-5.7h1.6v-1h-1.6v-0.9h2.3v-1h-2.3
	v-0.8h4v-3.3H17c0.9-0.1,1.6-0.8,1.6-1.7v-2.7c0-2.5,1.1-4.9,2.9-6.5c2.5-2.2,3.9-5.3,3.9-8.5c0-3.1-1.3-6-3.6-8.2
	c-2.5-2.4-6.1-3.7-9.8-3.6C5.6,67.8,0.3,72.7,0,78.7c-0.2,3.3,1.1,6.4,3.6,8.7c1.8,1.7,2.8,4.1,2.8,6.7l0,2.9c0,0.4,0.2,0.8,0.5,1.2
	c0.3,0.3,0.7,0.5,1.1,0.5H7.3v3.3h4.5v0.8H8.6v1h3.2v0.9H9.4v1h2.4v5.7c0,2.3,1.1,6.7,5.2,6.7h29.8v8.3c0,2.1,1.3,6.1,6.1,6.1h18.3
	V145c0,2.7,1.6,6.8,6.2,6.8c2.7,0,3.1,1.9,3.1,2.7v12.4c-3.3,1.5-4.5,5-4.7,7.1v6.8h-12c-3.5,0-6.4-2.9-6.4-6.4v-0.5h1.4v-1h-1.4
	v-0.5h2.1v-1h-2.1v-0.5h3.4v-2.6h-0.1c0.6-0.2,0.9-0.7,0.9-1.3v-2.2c0-2,0.8-3.9,2.3-5.2c2.1-1.8,3.2-4.3,3.2-6.9
	c0-2.5-1-4.9-2.9-6.6c-2.1-2-5-3-7.9-2.9c-5.3,0.2-9.6,4.2-9.9,9.1c-0.1,2.7,0.9,5.2,2.9,7.1c1.4,1.4,2.2,3.2,2.2,5.3l0,2.3
	c0,0.4,0.1,0.7,0.4,1c0.2,0.2,0.3,0.3,0.5,0.3h-0.1v2.6h3.1v0.5h-2v1h2v0.5h-1.3v1h1.3v0.5c0,4.6,3.7,8.4,8.4,8.4h12v6.3H37.1
	c-1.5,0-2.9-0.6-4-1.6c-1.2-1.1-1.9-2.7-1.9-4.3v-13.4h1.4v-1h-1.4v-1.1h2.3v-1h-2.3v-0.9h4.1v-3.7h-4.1v0h3.1
	c1.1,0,1.9-0.8,1.9-1.8v-3c0-2.8,1.2-5.5,3.3-7.3c2.8-2.5,4.4-5.9,4.4-9.5c0-3.4-1.4-6.6-4-9.1c-2.8-2.7-6.8-4.2-10.9-4
	c-7.2,0.3-13.2,5.8-13.5,12.5c-0.2,3.6,1.2,7.1,4,9.7c2,1.9,3.1,4.6,3.1,7.5l0,3.2c0,0.5,0.2,0.9,0.5,1.3c0.4,0.4,0.9,0.6,1.4,0.6
	h2.6v0h-3.6v3.7h3.6v0.9h-2.2v1h2.2v1.1H26v1h1.2v13.4c0,2.7,1.1,5.4,3.1,7.2c1.8,1.7,4.2,2.7,6.8,2.7h38.6v27c0,0.6,0.4,1,1,1
	s1-0.4,1-1l0-27H80c0.1,0,0.3,0,0.4,0v27c0,1.1,0.9,2,2,2s2-0.9,2-2v-25l0.5,0.5c1.1,1.1,1.7,2.6,1.7,4.2V220c0,1.1,0.9,2,2,2
	s2-0.9,2-2v-20.3c0-2.6-1-5.1-2.9-7l-0.7-0.7c-0.8-0.8-1.7-1.4-2.6-1.9v-7.3h7.4c0.5,0,1.1,0.1,1.6,0.2v37.1c0,0.6,0.4,1,1,1
	s1-0.4,1-1v-36.2c1.7,1.1,2.8,3.1,2.8,5.2V220c0,0.6,0.4,1,1,1s1-0.4,1-1v-30.9c0-3.3-2-6.2-4.8-7.5v-13.5l6.8,0V220
	c0,1.4,1.1,2.5,2.5,2.5s2.5-1.1,2.5-2.5v-51.9l8.6,0v19.3c-0.3,0.2-0.5,0.4-0.8,0.6c-3.9,3.2-6.2,8-6.2,13V220c0,1.1,0.9,2,2,2
	s2-0.9,2-2V201c0-3,1.1-5.9,3-8.2V220c0,0.6,0.4,1,1,1s1-0.4,1-1v-29.1c1-0.8,2.2-1.4,3.4-1.9V220c0,0.6,0.4,1,1,1s1-0.4,1-1v-31.5
	c0.8-0.2,1.6-0.2,2.5-0.2h0.9v31.9c0,0.6,0.4,1,1,1s1-0.4,1-1v-31.9h23.9c4.3,0,8.3-1.6,11.5-4.5c3.4-3.2,5.3-7.6,5.3-12.3v-3.3
	l15.8,0c0.1,0,3.5,0.3,5.9-1.9c1.4-1.3,2.1-3.1,2.1-5.4V112h2.5v-1H193v-1h3.4v-1H193v-0.9h5.1v-3.5h-11.3V108.2z M133,114.6
	c-1.8-1.7-2.7-4-2.6-6.4c0.2-4.4,4.1-8,8.9-8.2c0.1,0,0.3,0,0.4,0c2.6,0,5,1,6.8,2.7c1.7,1.6,2.6,3.7,2.6,6c0,2.4-1,4.6-2.9,6.2
	c-1.7,1.5-2.7,3.7-2.7,6v2.2c0,0.2-0.2,0.4-0.5,0.4h-2.6c-0.1-0.2-0.3-0.3-0.6-0.3l0-5.7l2.5-3h-6l2.5,3v6l0.1,0c0,0,0,0,0,0h-2.8
	l2.1,0v-5.8l-3.2-3.7h8.6l-3.2,3.7l0,5.8l2.3,0c0.5,0,0.6-0.3,0.6-0.8l0-2.2c0-2,0.8-3.8,2.3-5.2c1.8-1.6,3.2-4.1,3.2-6.6
	c0-5-4.4-8.7-9.9-8.5c-4.8,0.2-8.5,3.9-8.8,8.3c-0.1,2.5,1.5,4.9,3.2,6.6c1.5,1.5,2,3.2,2,5.2l0,2.1c0,0.5,0,1,0.6,1H136
	c-0.2,0-0.3-0.1-0.4-0.2c-0.1-0.1-0.1-0.2-0.1-0.3l0-2.3C135.5,118.4,134.6,116.1,133,114.6z M156.4,53.5c-0.2-0.2-0.2-0.4-0.2-0.6
	l0-3.3c0-3.3-1.3-6.4-3.6-8.6c-2.7-2.5-4-5.9-3.9-9.4c0.3-6.5,6.1-11.8,13.2-12.1c0.2,0,0.4,0,0.6,0c3.8,0,7.4,1.4,10,3.9
	c2.5,2.4,3.8,5.5,3.8,8.8c0,3.5-1.5,6.7-4.2,9.1c-2.4,2.1-3.8,5.2-3.8,8.5v3.2c0,0.5-0.4,0.9-1,0.9h-10.2
	C156.9,53.8,156.6,53.6,156.4,53.5z M68.4,103.9l0-2.8c0-2.8-1.1-5.4-3-7.3c-2.2-2.1-3.4-4.9-3.2-7.9c0.3-5.5,5.1-9.9,11.1-10.2
	c0.2,0,0.4,0,0.5,0c3.2,0,6.2,1.2,8.4,3.3c2.1,2,3.2,4.6,3.2,7.4c0,2.9-1.3,5.6-3.6,7.7c-2,1.8-3.2,4.4-3.2,7.2v2.7
	c0,0.4-0.3,0.7-0.8,0.7h-8.7c-0.2,0-0.4-0.1-0.6-0.2C68.5,104.2,68.4,104,68.4,103.9z M7.3,97l0-2.9c0-2.8-1.1-5.5-3.1-7.4
	c-2.3-2.1-3.4-5-3.3-8c0.3-5.5,5.2-10,11.2-10.3c0.2,0,0.4,0,0.5,0c3.2,0,6.3,1.2,8.5,3.3c2.1,2,3.3,4.7,3.3,7.5
	c0,3-1.3,5.7-3.6,7.8c-2.1,1.8-3.3,4.5-3.3,7.3V97c0,0.4-0.3,0.7-0.8,0.7H8.1c-0.2,0-0.4-0.1-0.6-0.2C7.4,97.3,7.3,97.1,7.3,97z
	 M50,158.6c-1.8-1.7-2.7-4-2.6-6.3c0.2-4.4,4.1-8,8.9-8.2c0.1,0,0.3,0,0.4,0c2.6,0,5,1,6.8,2.6c1.7,1.6,2.6,3.7,2.6,5.9
	c0,2.3-1,4.5-2.9,6.2c-1.7,1.5-2.6,3.6-2.6,5.9v2.2c0,0.2-0.2,0.4-0.5,0.4h-2.7V167l1.8,0c1,0,1-0.9,1-1.2l0-2
	c0-1.8,0.5-2.9,1.8-4.1c1.8-1.6,3.8-4.4,3.8-6.8c0-2.2-0.9-4.2-2.5-5.7c-1.8-1.7-4.4-2.7-7.2-2.6c-4.7,0.2-8.3,3.7-8.5,8.2
	c-0.1,1.9,1.2,4.2,3.8,6.6c1.2,1.1,1.3,2.4,1.2,4.4l0,2c0,0.3,0,0.8,0.3,1.1c0.1,0.1,0.3,0.3,0.8,0.3c0,0,0,0,0,0l1.7-0.1v0.4H53
	c-0.2,0-0.3-0.1-0.4-0.2c-0.1-0.1-0.1-0.2-0.1-0.3l0-2.3C52.5,162.3,51.6,160.2,50,158.6z M52.1,158.6c-2.4-2.3-3.5-4.2-3.5-5.9
	c0.2-3.9,3.5-7,7.6-7.2c2.5-0.1,4.8,0.7,6.4,2.3c1.4,1.3,2.2,3.1,2.2,5c0,2-1.7,4.6-3.4,6.1c-1.5,1.3-2.1,2.7-2.1,4.8l0,2
	c0,0,0,0.2,0,0.2c0,0,0,0,0,0l-1.2,0l0-4.7l3.1-3.7l-0.7-0.7c-1-1.1-2.4-1.7-3.9-1.7c-1.5,0-2.9,0.5-3.9,1.6l-0.8,0.8l3.1,3.7v4.7
	l-1.3,0.1c0,0,0-0.1,0-0.4l0-2C53.7,162,53.7,160.1,52.1,158.6z M53.2,157.7l0.1-0.1c0.9-0.9,2-1.3,3.2-1.3c1.2,0,2.3,0.5,3.2,1.4
	l0,0l-2.7,3.2l0,4.8c-0.2-0.1-0.4-0.2-0.6-0.2c-0.2,0-0.3,0.1-0.5,0.1v-4.7L53.2,157.7z M23.9,160.8c-0.1-0.2-0.2-0.3-0.2-0.5l0-3.2
	c0-3.1-1.2-6.1-3.4-8.2c-2.5-2.4-3.8-5.6-3.7-8.9c0.3-6.2,5.8-11.3,12.5-11.5c0.2,0,0.4,0,0.6,0c3.6,0,7,1.3,9.5,3.7
	c2.4,2.3,3.7,5.2,3.7,8.4c0,3.3-1.4,6.4-4,8.7c-2.3,2-3.6,5-3.6,8.1v3c0,0.4-0.4,0.8-0.9,0.8h-3.4c-0.2-0.4-0.5-0.7-1-0.9l0-7.7
	l3.5-4.1h-8.4l3.5,4.1v7.6c-0.3,0.1-0.6,0.3-0.9,0.5v-7.9l-4.4-5.2h11.9l-4.4,5.2l0,8.1l3.2,0c0.8,0,0.8-0.4,0.8-1.1l0.1-3
	c0-2.8,1-5.3,3.2-7.2c2.5-2.2,4.4-5.7,4.4-9.1c0-6.9-6.1-12-13.7-11.7c-6.7,0.3-11.8,5.4-12.1,11.5c-0.2,3.5,2,6.8,4.4,9.1
	c2.1,2,2.8,4.5,2.7,7.3l-0.1,3c0,0.7,0,1.3,0.8,1.3l2.9,0c-0.1,0.1-0.1,0.1-0.1,0.2h-2.9C24.3,161,24,160.9,23.9,160.8z
	 M126.5,166.1h-3.4v-11.8c0-0.1,0-0.1,0-0.2c0,0-0.1-0.9,0.4-1.5c0.6-0.7,1.8-0.9,2.8-0.9l0.2,0V166.1z M123.9,132.2
	c2.4,0,2.6,2.4,2.6,2.9v14.5h-0.2c-1.9,0-3.4,0.5-4.3,1.6c-1,1.2-0.9,2.6-0.9,3.1v11.8h-3.4v-33.8H123.9z M89.6,117.9
	c3.6,0,3.8,3.4,3.8,3.8v8.6H75.1v-12.3H89.6z M52.8,130.2c-3.9,0-4.1-3.6-4.1-4.1v-8.3h22.4v12.3H52.8z M77.3,147.8
	c-2,0-2.2-2.1-2.2-2.8v-12.7h18.2v33.8h-8.9v-11.6c0-0.3,0-2.9-2-4.8C81.6,148.8,80,147.8,77.3,147.8z M77.7,174.1
	c0-0.2,0.3-3.3,2.7-4.9v11.6h-2.7L77.7,174.1z M80.4,189c-0.1,0-0.3,0-0.4,0h-2.3l0-6.3h2.7V189z M93.3,180.9
	c-0.5-0.1-1-0.2-1.6-0.2h-7.4v-12.6l8.9,0V180.9z M95.3,166.1v-33.8h6.8v33.8H95.3z M107.1,166.1v-33.8h8.6v33.8H107.1z
	 M117.7,186.2v-18.1l3.4,0v16.7C120,185.2,118.8,185.6,117.7,186.2z M125.6,184.2c-0.8,0-1.6,0.1-2.5,0.2v-16.3l3.4,0v16.1H125.6z
	 M165.2,171.4c0,3.5-1.5,6.9-4.1,9.4c-2.4,2.2-5.5,3.4-8.7,3.4h-23.9v-16.1l36.7,0V171.4z"/>
<path d="M201.5,76.3c-2.4-2.3-5.9-3.6-9.5-3.4c-6.2,0.3-11,4.9-11.3,10.8c-0.1,2.5,1.6,5.5,5,8.8c1.8,1.7,1.8,3.7,1.7,6.1l0,2.7
	c0,0.5,0,1,0.4,1.4c0.2,0.2,0.5,0.3,0.9,0.3c0,0,0,0,0,0l2.9-0.2v-7.9l-3.8-4.4l0.3-0.3c1.2-1.2,2.7-1.8,4.4-1.8c0,0,0.1,0,0.1,0
	c1.7,0,3.2,0.7,4.4,1.9l0.1,0.2l-3.7,4.4l0,7.9l2.8,0c1.2,0,1.2-1,1.2-1.5l0-2.7c0-2.5,0.7-4,2.4-5.6c2.4-2.1,5-5.9,5-9.1
	C204.7,81,203.6,78.3,201.5,76.3z M199.1,92.2c-2,1.7-2.8,3.6-2.8,6.3l0,2.7c0,0.1,0,0.4,0,0.5c0,0,0,0-0.2,0l-1.8,0l0-6.5l4.1-4.8
	l-0.8-0.8c-1.4-1.4-3.2-2.2-5.1-2.2c0,0-0.1,0-0.1,0c-1.9,0-3.7,0.7-5.1,2.1l-0.9,0.9l4.1,4.8v6.6l-1.9,0.1c-0.1,0-0.1,0-0.1,0
	c0,0-0.1-0.2-0.1-0.7l0-2.7c0-2.4,0-4.8-2-6.8c-3.2-3.1-4.8-5.8-4.7-8c0.3-5.4,4.7-9.6,10.4-9.9c3.3-0.1,6.5,1,8.7,3.1
	c1.9,1.8,3,4.3,3,6.9C203.7,86.7,201.4,90.2,199.1,92.2z"/>
<path d="M202.6,74.9c-2.7-2.6-6.6-4-10.5-3.9c-7,0.3-12.8,5.6-13.1,12.1c-0.2,3.5,1.2,6.9,3.9,9.4c2,1.9,3,4.4,3,7.2l0,3.1
	c0,0.5,0.2,0.9,0.5,1.2c0.4,0.4,0.9,0.6,1.4,0.6h9.5c1,0,1.9-0.8,1.9-1.8v-2.9c0-2.7,1.2-5.3,3.2-7.1c2.7-2.4,4.2-5.7,4.2-9.2
	C206.5,80.4,205.1,77.2,202.6,74.9z M201.6,92.1c-2.2,2-3.5,4.8-3.5,7.8v2.9c0,0.4-0.4,0.8-0.9,0.8h-9.5c-0.3,0-0.5-0.1-0.7-0.3
	c-0.1-0.1-0.2-0.3-0.2-0.5l0-3.1c0-3-1.2-5.9-3.3-8c-2.4-2.3-3.7-5.4-3.5-8.6c0.3-6,5.6-10.9,12.1-11.1c0.2,0,0.4,0,0.6,0
	c3.5,0,6.8,1.3,9.2,3.6c2.3,2.2,3.5,5.1,3.5,8.1C205.5,86.9,204.1,89.8,201.6,92.1z"/>
<path d="M8.9,97.1l2.7-0.2v-7.3l-3.5-4.1l0.2-0.2c1.1-1.1,2.6-1.7,4.1-1.6c1.5,0,3,0.6,4.1,1.8l0.1,0.1l-3.4,4.1l0,7.4l2.6,0
	c1.2,0,1.2-1,1.2-1.4l0-2.5c0-2.3,0.6-3.7,2.2-5.1c2.2-2,4.6-5.4,4.6-8.4c0-2.7-1.1-5.2-3-7c-2.2-2.1-5.5-3.3-8.8-3.1
	c-5.7,0.2-10.2,4.6-10.5,10c-0.1,2.4,1.5,5.1,4.6,8.1c1.6,1.6,1.6,3.4,1.6,5.6l0,2.5c0,0.5,0,1,0.4,1.3C8.3,97,8.5,97.1,8.9,97.1
	C8.9,97.1,8.9,97.1,8.9,97.1z M8.8,96.1c0,0-0.1-0.1-0.1-0.6l0-2.5c0-2.2,0-4.5-1.9-6.3c-3-2.8-4.4-5.3-4.3-7.4
	c0.2-5,4.3-8.9,9.5-9.1c3.1-0.1,6,0.9,8.1,2.9c1.8,1.7,2.7,3.9,2.7,6.3c0,2.5-2.2,5.8-4.3,7.7C16.7,88.8,16,90.5,16,93l0,2.5
	c0,0.1,0,0.4,0,0.4c0,0,0,0-0.2,0l-1.6,0l0-6l3.8-4.5l-0.7-0.8c-1.3-1.3-2.9-2-4.8-2.1c-1.8,0-3.5,0.7-4.8,1.9l-0.9,0.9l3.8,4.5v6
	L8.8,96.1C8.8,96.1,8.8,96.1,8.8,96.1z"/>
<rect x="44.6" y="70.5" width="5.7" height="1"/>
<path d="M43.9,63.4l0,1.8c0,0.3,0,0.8,0.3,1.1c0.1,0.1,0.3,0.3,0.7,0.3c0,0,0,0,0,0l2.1-0.2v-5.7l-2.6-3l0.1-0.1
	c0.8-0.8,1.9-1.2,3-1.2c1.1,0,2.2,0.5,2.9,1.3l0,0l-2.5,3l0,5.7l2.1,0c1,0,1-0.9,1-1.2l0-1.9c0-1.7,0.5-2.7,1.6-3.7
	c1.7-1.5,3.5-4.1,3.5-6.4c0-2-0.8-3.9-2.3-5.4c-1.7-1.6-4.1-2.5-6.7-2.4c-4.3,0.2-7.8,3.5-8,7.6c-0.1,1.8,1.1,3.9,3.5,6.2
	C43.8,60.4,43.9,61.6,43.9,63.4z M47.2,46.5c2.3-0.1,4.4,0.7,5.9,2.1c1.3,1.2,2,2.9,2,4.6c0,1.9-1.6,4.3-3.2,5.6
	c-1.4,1.2-2,2.5-2,4.5l0,1.9c0,0,0,0.1,0,0.2l-1.1,0l0-4.3l2.9-3.4l-0.6-0.7c-1-1-2.3-1.6-3.6-1.6c0,0,0,0-0.1,0
	c-1.4,0-2.6,0.5-3.6,1.5l-0.7,0.7l2.9,3.4v4.4l-1.1,0.1c0,0,0-0.1,0-0.4l0-1.8c0-1.7,0-3.4-1.5-4.8c-2.2-2.1-3.3-3.9-3.2-5.4
	C40.4,49.5,43.4,46.7,47.2,46.5z"/>
<path d="M42.8,64.2l0,2.1c0,0.4,0.1,0.7,0.4,1c0.1,0.1,0.3,0.2,0.4,0.3h0V70h7.9v-2.4h0c0.5-0.2,0.8-0.7,0.8-1.2v-2
	c0-1.8,0.8-3.6,2.1-4.8c1.9-1.7,3-4,3-6.5c0-2.3-1-4.5-2.7-6.2c-1.9-1.8-4.6-2.8-7.4-2.7c-4.9,0.2-9,4-9.2,8.5
	c-0.1,2.5,0.8,4.8,2.7,6.6C42.1,60.6,42.9,62.3,42.8,64.2z M47.3,45.1c0.1,0,0.3,0,0.4,0c2.4,0,4.6,0.9,6.3,2.5
	c1.5,1.5,2.4,3.4,2.4,5.5c0,2.2-0.9,4.2-2.7,5.7c-1.6,1.4-2.5,3.4-2.5,5.5v2c0,0.2-0.2,0.4-0.5,0.4h-6.5c-0.1,0-0.3-0.1-0.3-0.1
	c0,0-0.1-0.1-0.1-0.2l0-2.1c0-2.1-0.8-4.2-2.3-5.6c-1.7-1.6-2.5-3.7-2.4-5.9C39.3,48.7,42.9,45.3,47.3,45.1z"/>
</svg>
