<svg xmlns="http://www.w3.org/2000/svg" viewBox="0 0 206.5 222.5">
  <path d="M78.2 73.7c.3 0 .5-.1.7-.3l8.4-8.5c.4-.4.4-1 0-1.4-.4-.4-1-.4-1.4 0L77.5 72c-.4.4-.4 1 0 1.4.2.2.5.3.7.3zM81.5 54c-.3-.5-.9-.6-1.4-.3L69 60.2c-.5.3-.6.9-.3 1.4.2.3.5.5.9.5.2 0 .3 0 .5-.1l11.1-6.6c.4-.3.5-1 .3-1.4zm-17-5.1h.1l12.2-1.8c.5-.1.9-.6.8-1.1-.1-.5-.6-.9-1.1-.8L64.3 47c-.5.1-.9.6-.8 1.1 0 .4.5.8 1 .8zm-.2-14.1l12.2 2.4h.2c.5 0 .9-.3 1-.8.1-.5-.2-1.1-.8-1.2l-12.2-2.4c-.5-.1-1.1.2-1.2.8-.1.6.2 1.1.8 1.2zm4.1-13.2l11.7 7.2c.2.1.3.1.5.1.3 0 .7-.2.9-.5.3-.5.1-1.1-.3-1.4l-11.7-7.2c-.5-.3-1.1-.1-1.4.3-.3.6-.1 1.2.3 1.5zm16.5-2.3c.2.2.5.3.7.3.2 0 .5-.1.7-.3.4-.4.4-1 0-1.4l-7.9-8.4c-.4-.4-1-.4-1.4 0s-.4 1 0 1.4l7.9 8.4zm7.9-4.7c.2.4.5.6.9.6.1 0 .3 0 .4-.1.5-.2.7-.8.5-1.3l-5-10.5c-.2-.5-.8-.7-1.3-.5-.5.2-.7.8-.5 1.3l5 10.5zm10.2-1.2c.6 0 1-.4 1-1V1c0-.6-.4-1-1-1s-1 .4-1 1v11.4c0 .5.4 1 1 1zm9.1 1.7c.1.1.3.1.4.1.4 0 .7-.2.9-.6l4.8-10.5c.2-.5 0-1.1-.5-1.3-.5-.2-1.1 0-1.3.5l-4.8 10.5c-.2.4 0 1 .5 1.3zm8.8 4.5c.3 0 .5-.1.7-.3l8.1-8.4c.4-.4.4-1 0-1.4-.4-.4-1-.4-1.4 0l-8.1 8.4c-.4.4-.4 1 0 1.4.2.2.5.3.7.3zm6.1 8.8c.2.3.5.4.8.4.2 0 .4-.1.6-.2l10.8-7.2c.5-.3.6-.9.3-1.4-.3-.5-.9-.6-1.4-.3l-10.8 7.2c-.5.5-.6 1.1-.3 1.5zm2.5 8.1c.1.5.5.8 1 .8h.2l11.7-2.4c.5-.1.9-.6.8-1.2-.1-.5-.6-.9-1.2-.8l-11.7 2.4c-.6.1-.9.6-.8 1.2zm1.8 9.5c-.1.5.3 1.1.8 1.1l11.4 1.8h.2c.5 0 .9-.4 1-.8.1-.5-.3-1.1-.8-1.1l-11.4-1.8c-.6-.2-1.1.2-1.2.8zm7.2 16c.3 0 .7-.2.9-.5.3-.5.1-1.1-.4-1.4l-11.4-6.6c-.5-.3-1.1-.1-1.4.4-.3.5-.1 1.1.4 1.4l11.4 6.6c.2.1.4.1.5.1zm-17.1 1.5c-.4.4-.5 1-.1 1.4l7.5 8.5c.2.2.5.3.7.3.2 0 .5-.1.7-.3.4-.4.5-1 .1-1.4l-7.5-8.5c-.3-.3-1-.4-1.4 0zm-30.9 1.3c2 3.4 3.6 6.2 3.7 7.3.3 3.6.5 5.4.5 5.4 0 .3.2.4.5.4H113c.3 0 .5-.2.5-.4 0 0 .2-1.8.5-5.4.1-1.1 1.8-4 3.7-7.3 4.2-7.2 10-17.1 10-25 0-11.6-9.7-21.6-22.2-22.8-.1-.1-.2-.1-.3-.1H103c-.1 0-.2.1-.3.1-12.5 1.2-22.2 11.1-22.2 22.8 0 7.9 5.8 17.8 10 25zM103 18c.1 0 .2 0 .2-.1h1.7c.1.1.2.1.3.1 12.1 1 21.5 10.6 21.5 21.8 0 7.6-5.9 17.7-9.9 24.5-2.2 3.7-3.8 6.4-3.9 7.8-.2 2.5-.4 4.2-.5 4.9H95.7c-.1-.7-.2-2.4-.5-4.9-.1-1.3-1.7-4-3.9-7.8-3.9-6.7-9.9-16.9-9.9-24.5C81.5 28.6 91 19.1 103 18zm-8.7 61.1h19.1v4H94.3z"/>
  <path d="M96.2 71.9c.3 3.4.5 4.1.5 4.1h14.9s.2-.7.5-4.1c.3-3.4 14.1-20.6 14.1-31.7 0-10.5-8.9-20.2-20.9-21.2v-.1h-2.1v.1c-12 1-20.9 10.7-20.9 21.2-.1 11.1 13.6 28.3 13.9 31.7zm16-13.8l-5.8 8v9.6h-1V65.5l6.1-8.5.7 1.1zM96.6 46.5h14.5v1H96.6v-1zm0 4h14.5v1H96.6v-1zm0 4h14.5v1H96.6v-1zm.1 2.5l6.2 8.5v10.3h-1v-9.6l-5.8-8 .6-1.2zm63.9 91c0 .9.1 1.7.9 1.7h3.6v-10.2l-5.2-6.5h13.9l-5.1 6.5-.1 10.2h3.8c.9 0 .9-.5.9-1.4l.1-3.8c0-3.5 1.2-6.7 3.8-9.1 2.9-2.8 5.2-7.2 5.2-11.6 0-8.7-7.2-15.2-15.9-14.8-7.8.4-13.8 6.8-14.1 14.6-.2 4.4 2.4 8.7 5.2 11.6 2.5 2.5 3.2 5.7 3.2 9.2l-.2 3.6z"/>
  <path d="M162 133.9l4.1 5.2v10.6l1.6-.1.1-10.5 4-5.2"/>
  <path d="M159.8 150.4c.4.4 1 .6 1.5.6h11.4c1.2 0 2.2-1 2.2-2.2V145c0-3.6 1.4-7.1 3.9-9.4 3.3-3.1 5.1-7.3 5.1-11.9 0-4.5-1.8-8.8-5.1-11.9-3.3-3.1-7.6-4.7-12.2-4.5-8.4.4-15.3 7.3-15.7 15.7-.2 4.6 1.4 8.9 4.6 12.2 2.4 2.4 3.7 5.9 3.7 9.6v4c0 .7.2 1.2.6 1.6zm-3.5-15.9c-3-3.1-4.5-7.2-4.3-11.4.4-7.9 6.8-14.4 14.7-14.7h.7c4 0 7.8 1.5 10.7 4.3 3.1 2.9 4.8 6.9 4.8 11.2 0 4.2-1.7 8.2-4.8 11.1-2.7 2.5-4.2 6.2-4.2 10.1v3.8c0 .6-.5 1.2-1.2 1.2h-11.4c-.3 0-.6-.1-.8-.3s-.3-.5-.3-.8v-4c.1-4.1-1.3-7.8-3.9-10.5zM168 52.3l.1-3.2c0-2.9 1.1-5.5 3.4-7.5 2.6-2.3 4.7-6 4.7-9.6 0-7.2-6.4-12.6-14.3-12.2-7 .3-12.4 5.6-12.7 12.1-.2 3.6 2.1 7.2 4.7 9.6 2.2 2.1 2.9 4.7 2.9 7.6l-.1 3.1c0 .7 0 1.4.8 1.4h3.2V45l-4.6-5.4h12.4l-4.6 5.4-.1 8.4h3.4c.7.1.8-.4.8-1.1z"/>
  <path d="M157.8 40.5l3.7 4.3v8.7h1.4v-8.7l3.7-4.3M72 104.4v-7.2l-3.9-4.6h10.5l-3.9 4.6v7.1h2.9c.7 0 .7-.4.7-1v-2.7c0-2.5.9-4.7 2.8-6.4 2.2-1.9 3.9-5.1 3.9-8.1 0-6.1-5.4-10.6-12.1-10.4-5.9.3-10.5 4.8-10.7 10.2C62.1 89 64 92 66.1 94c1.9 1.8 2.4 4 2.4 6.4v2.6c0 .6 0 1.2.7 1.2l2.8.2z"/>
  <path d="M69.7 93.4l3.1 3.6v7.4H74V97l3.1-3.6"/>
  <path d="M186.8 108.2h4.2v.9h-2.8v1h2.8v1h-1.9v1h1.9v48.8c0 1.7-.5 3-1.4 3.9-1.7 1.5-4.3 1.4-4.4 1.3h-15.9v-5.3h1.6v-1h-1.6v-1.6h2.6v-1h-2.6c-.1-.5-.4-1-.8-1.3h5.6v-4.6h-13.7v4.6h5.8c-.4.3-.7.8-.8 1.3h-3.3v1h3.3v1.6h-2.2v1h2.2v5.3h-36.7v-14.4h6.1c.1 0 3.1.2 4.9-1.5.8-.8 1.3-1.8 1.3-3.1V130h1.1v-1H141v-.5h1.7v-1H141v-.5h3v-2.6h-.1c.6-.2 1-.7 1-1.3v-2.2c0-2 .8-3.9 2.3-5.2 2.1-1.8 3.2-4.3 3.2-6.9 0-2.5-1-4.9-2.9-6.7-2.1-2-5-3-8-2.9-5.3.2-9.7 4.3-9.9 9.2-.1 2.7.9 5.2 2.9 7.1 1.4 1.4 2.2 3.3 2.2 5.3v2.3c0 .4.1.7.4 1 .2.2.3.3.5.3h-.1v2.6h3.4v.5h-2.4v1h2.4v.5h-1.7v1h1.7v17.1c0 .7-.2 1.2-.6 1.6-.9.9-2.8 1-3.4 1h-6.2v-14.5c0-1.7-1-4.9-4.6-4.9h-6.2v-29.8c0-.3.1-6.2 8-6.2 2.9 0 6.2 0 9.6.1 7.3.1 14.9.1 20-.1 6.7-.3 8.4-5.7 8.4-8.5v-23h1.9v-1h-1.9v-1.2h2.8v-1h-2.8v-1h4.7v-3.8h-5.2l-.1-.1h4.3c1.1 0 2-.8 2-1.9v-3.2c0-3 1.3-5.8 3.4-7.7 3-2.6 4.6-6.1 4.6-9.9 0-3.6-1.5-6.9-4.2-9.5-3-2.8-7.1-4.4-11.4-4.2-7.6.3-13.8 6.1-14.1 13.1-.2 3.8 1.3 7.4 4.2 10.2 2.1 2 3.3 4.8 3.3 7.9v3.3c0 .5.2.9.5 1.3.4.4.9.6 1.5.6h5.2s-.1 0-.1.1h-6.1v3.8h5.6v1h-4v1h4v1.2h-3v1h3v23c0 .3-.1 6.2-6.5 6.5-5 .2-12.6.1-19.9.1-3.4 0-6.8-.1-9.7-.1-9.8 0-10 8.1-10 8.2v29.8h-8.6V90h3.1v-3h-3.6c-.1-.1-.2-.2-.2-.3h6.1v-3h-17v3h7.1c-.1.1-.2.2-.2.3h-4.3v3h3.8v40.2h-6.8v-8.6c0-2-1.2-5.8-5.8-5.8H75.1v-3.5h1.2v-1h-1.2v-.8h2v-1h-2c0-.3-.1-.5-.2-.8h3.8v-3.2H78c.9-.1 1.6-.8 1.6-1.6v-2.7c0-2.5 1.1-4.8 2.9-6.5 2.5-2.2 3.9-5.2 3.9-8.4 0-3-1.3-5.9-3.5-8.1-2.5-2.4-6.1-3.7-9.7-3.6-6.5.3-11.7 5.2-12 11.1-.2 3.2 1.1 6.3 3.5 8.7 1.8 1.7 2.8 4.1 2.7 6.6v2.8c0 .4.2.8.5 1.1.3.3.7.5 1.1.5h-.7v3.2h3.1c-.1.2-.2.5-.2.8h-1.6v1h1.5v.8h-.7v1h.7v3.5H48.7v-43h1v-1h-1.4c-.2-.1-.3-.2-.5-.2s-.4.1-.5.2h-1.9v1h1.5v43H17c-3.1 0-3.2-4.5-3.2-4.7v-5.7h1.6v-1h-1.6v-.9h2.3v-1h-2.3v-.8h4v-3.3H17c.9-.1 1.6-.8 1.6-1.7v-2.7c0-2.5 1.1-4.9 2.9-6.5 2.5-2.2 3.9-5.3 3.9-8.5 0-3.1-1.3-6-3.6-8.2-2.5-2.4-6.1-3.7-9.8-3.6-6.4.7-11.7 5.6-12 11.6-.2 3.3 1.1 6.4 3.6 8.7 1.8 1.7 2.8 4.1 2.8 6.7V97c0 .4.2.8.5 1.2.3.3.7.5 1.1.5h-.7v3.3h4.5v.8H8.6v1h3.2v.9H9.4v1h2.4v5.7c0 2.3 1.1 6.7 5.2 6.7h29.8v8.3c0 2.1 1.3 6.1 6.1 6.1h18.3V145c0 2.7 1.6 6.8 6.2 6.8 2.7 0 3.1 1.9 3.1 2.7v12.4c-3.3 1.5-4.5 5-4.7 7.1v6.8h-12c-3.5 0-6.4-2.9-6.4-6.4v-.5h1.4v-1h-1.4v-.5h2.1v-1h-2.1v-.5h3.4v-2.6h-.1c.6-.2.9-.7.9-1.3v-2.2c0-2 .8-3.9 2.3-5.2 2.1-1.8 3.2-4.3 3.2-6.9 0-2.5-1-4.9-2.9-6.6-2.1-2-5-3-7.9-2.9-5.3.2-9.6 4.2-9.9 9.1-.1 2.7.9 5.2 2.9 7.1 1.4 1.4 2.2 3.2 2.2 5.3v2.3c0 .4.1.7.4 1 .2.2.3.3.5.3h-.1v2.6h3.1v.5h-2v1h2v.5h-1.3v1h1.3v.5c0 4.6 3.7 8.4 8.4 8.4h12v6.3H37.1c-1.5 0-2.9-.6-4-1.6-1.2-1.1-1.9-2.7-1.9-4.3v-13.4h1.4v-1h-1.4v-1.1h2.3v-1h-2.3v-.9h4.1v-3.7h-4.1 3.1c1.1 0 1.9-.8 1.9-1.8v-3c0-2.8 1.2-5.5 3.3-7.3 2.8-2.5 4.4-5.9 4.4-9.5 0-3.4-1.4-6.6-4-9.1-2.8-2.7-6.8-4.2-10.9-4-7.2.3-13.2 5.8-13.5 12.5-.2 3.6 1.2 7.1 4 9.7 2 1.9 3.1 4.6 3.1 7.5v3.2c0 .5.2.9.5 1.3.4.4.9.6 1.4.6h2.6-3.6v3.7h3.6v.9h-2.2v1h2.2v1.1H26v1h1.2v13.4c0 2.7 1.1 5.4 3.1 7.2 1.8 1.7 4.2 2.7 6.8 2.7h38.6v27c0 .6.4 1 1 1s1-.4 1-1v-27h2.7v27c0 1.1.9 2 2 2s2-.9 2-2v-25l.5.5c1.1 1.1 1.7 2.6 1.7 4.2V220c0 1.1.9 2 2 2s2-.9 2-2v-20.3c0-2.6-1-5.1-2.9-7l-.7-.7c-.8-.8-1.7-1.4-2.6-1.9v-7.3h7.4c.5 0 1.1.1 1.6.2v37.1c0 .6.4 1 1 1s1-.4 1-1v-36.2c1.7 1.1 2.8 3.1 2.8 5.2V220c0 .6.4 1 1 1s1-.4 1-1v-30.9c0-3.3-2-6.2-4.8-7.5v-13.5h6.8V220c0 1.4 1.1 2.5 2.5 2.5s2.5-1.1 2.5-2.5v-51.9h8.6v19.3c-.3.2-.5.4-.8.6-3.9 3.2-6.2 8-6.2 13v19c0 1.1.9 2 2 2s2-.9 2-2v-19c0-3 1.1-5.9 3-8.2V220c0 .6.4 1 1 1s1-.4 1-1v-29.1c1-.8 2.2-1.4 3.4-1.9v31c0 .6.4 1 1 1s1-.4 1-1v-31.5c.8-.2 1.6-.2 2.5-.2h.9v31.9c0 .6.4 1 1 1s1-.4 1-1v-31.9h23.9c4.3 0 8.3-1.6 11.5-4.5 3.4-3.2 5.3-7.6 5.3-12.3v-3.3h15.8c.1 0 3.5.3 5.9-1.9 1.4-1.3 2.1-3.1 2.1-5.4V112h2.5v-1H193v-1h3.4v-1H193v-.9h5.1v-3.5h-11.3v3.6zm-53.8 6.4c-1.8-1.7-2.7-4-2.6-6.4.2-4.4 4.1-8 8.9-8.2h.4c2.6 0 5 1 6.8 2.7 1.7 1.6 2.6 3.7 2.6 6 0 2.4-1 4.6-2.9 6.2-1.7 1.5-2.7 3.7-2.7 6v2.2c0 .2-.2.4-.5.4h-2.6c-.1-.2-.3-.3-.6-.3v-5.7l2.5-3h-6l2.5 3v6h.1-2.8 2.1v-5.8L135 114h8.6l-3.2 3.7v5.8h2.3c.5 0 .6-.3.6-.8v-2.2c0-2 .8-3.8 2.3-5.2 1.8-1.6 3.2-4.1 3.2-6.6 0-5-4.4-8.7-9.9-8.5-4.8.2-8.5 3.9-8.8 8.3-.1 2.5 1.5 4.9 3.2 6.6 1.5 1.5 2 3.2 2 5.2v2.1c0 .5 0 1 .6 1h.1c-.2 0-.3-.1-.4-.2-.1-.1-.1-.2-.1-.3v-2.3c0-2.2-.9-4.5-2.5-6zm23.4-61.1c-.2-.2-.2-.4-.2-.6v-3.3c0-3.3-1.3-6.4-3.6-8.6-2.7-2.5-4-5.9-3.9-9.4.3-6.5 6.1-11.8 13.2-12.1h.6c3.8 0 7.4 1.4 10 3.9 2.5 2.4 3.8 5.5 3.8 8.8 0 3.5-1.5 6.7-4.2 9.1-2.4 2.1-3.8 5.2-3.8 8.5V53c0 .5-.4.9-1 .9h-10.2c-.2-.1-.5-.3-.7-.4zm-88 50.4v-2.8c0-2.8-1.1-5.4-3-7.3-2.2-2.1-3.4-4.9-3.2-7.9.3-5.5 5.1-9.9 11.1-10.2h.5c3.2 0 6.2 1.2 8.4 3.3 2.1 2 3.2 4.6 3.2 7.4 0 2.9-1.3 5.6-3.6 7.7-2 1.8-3.2 4.4-3.2 7.2v2.7c0 .4-.3.7-.8.7h-8.7c-.2 0-.4-.1-.6-.2 0-.3-.1-.5-.1-.6zM7.3 97v-2.9c0-2.8-1.1-5.5-3.1-7.4-2.3-2.1-3.4-5-3.3-8 .3-5.5 5.2-10 11.2-10.3h.5c3.2 0 6.3 1.2 8.5 3.3 2.1 2 3.3 4.7 3.3 7.5 0 3-1.3 5.7-3.6 7.8-2.1 1.8-3.3 4.5-3.3 7.3V97c0 .4-.3.7-.8.7H8.1c-.2 0-.4-.1-.6-.2-.1-.2-.2-.4-.2-.5zM50 158.6c-1.8-1.7-2.7-4-2.6-6.3.2-4.4 4.1-8 8.9-8.2h.4c2.6 0 5 1 6.8 2.6 1.7 1.6 2.6 3.7 2.6 5.9 0 2.3-1 4.5-2.9 6.2-1.7 1.5-2.6 3.6-2.6 5.9v2.2c0 .2-.2.4-.5.4h-2.7v-.3h1.8c1 0 1-.9 1-1.2v-2c0-1.8.5-2.9 1.8-4.1 1.8-1.6 3.8-4.4 3.8-6.8 0-2.2-.9-4.2-2.5-5.7-1.8-1.7-4.4-2.7-7.2-2.6-4.7.2-8.3 3.7-8.5 8.2-.1 1.9 1.2 4.2 3.8 6.6 1.2 1.1 1.3 2.4 1.2 4.4v2c0 .3 0 .8.3 1.1.1.1.3.3.8.3l1.7-.1v.4H53c-.2 0-.3-.1-.4-.2-.1-.1-.1-.2-.1-.3v-2.3c0-2.4-.9-4.5-2.5-6.1zm2.1 0c-2.4-2.3-3.5-4.2-3.5-5.9.2-3.9 3.5-7 7.6-7.2 2.5-.1 4.8.7 6.4 2.3 1.4 1.3 2.2 3.1 2.2 5 0 2-1.7 4.6-3.4 6.1-1.5 1.3-2.1 2.7-2.1 4.8v2.2h-1.2v-4.7l3.1-3.7-.7-.7c-1-1.1-2.4-1.7-3.9-1.7s-2.9.5-3.9 1.6l-.8.8 3.1 3.7v4.7l-1.3.1v-2.4c0-1.6 0-3.5-1.6-5zm1.1-.9l.1-.1c.9-.9 2-1.3 3.2-1.3 1.2 0 2.3.5 3.2 1.4l-2.7 3.2v4.8c-.2-.1-.4-.2-.6-.2-.2 0-.3.1-.5.1v-4.7l-2.7-3.2zm-29.3 3.1c-.1-.2-.2-.3-.2-.5v-3.2c0-3.1-1.2-6.1-3.4-8.2-2.5-2.4-3.8-5.6-3.7-8.9.3-6.2 5.8-11.3 12.5-11.5h.6c3.6 0 7 1.3 9.5 3.7 2.4 2.3 3.7 5.2 3.7 8.4 0 3.3-1.4 6.4-4 8.7-2.3 2-3.6 5-3.6 8.1v3c0 .4-.4.8-.9.8H31c-.2-.4-.5-.7-1-.9v-7.7l3.5-4.1h-8.4l3.5 4.1v7.6c-.3.1-.6.3-.9.5v-7.9l-4.4-5.2h11.9l-4.4 5.2v8.1H34c.8 0 .8-.4.8-1.1l.1-3c0-2.8 1-5.3 3.2-7.2 2.5-2.2 4.4-5.7 4.4-9.1 0-6.9-6.1-12-13.7-11.7-6.7.3-11.8 5.4-12.1 11.5-.2 3.5 2 6.8 4.4 9.1 2.1 2 2.8 4.5 2.7 7.3l-.1 3c0 .7 0 1.3.8 1.3h2.9c-.1.1-.1.1-.1.2h-2.9c-.1-.2-.4-.3-.5-.4zm102.6 5.3h-3.4v-12s-.1-.9.4-1.5c.6-.7 1.8-.9 2.8-.9h.2v14.4zm-2.6-33.9c2.4 0 2.6 2.4 2.6 2.9v14.5h-.2c-1.9 0-3.4.5-4.3 1.6-1 1.2-.9 2.6-.9 3.1v11.8h-3.4v-33.8h6.2zm-34.3-14.3c3.6 0 3.8 3.4 3.8 3.8v8.6H75.1V118h14.5zm-36.8 12.3c-3.9 0-4.1-3.6-4.1-4.1v-8.3h22.4v12.3H52.8zm24.5 17.6c-2 0-2.2-2.1-2.2-2.8v-12.7h18.2v33.8h-8.9v-11.6c0-.3 0-2.9-2-4.8-.8-.9-2.4-1.9-5.1-1.9zm.4 26.3c0-.2.3-3.3 2.7-4.9v11.6h-2.7v-6.7zm2.7 14.9h-2.7v-6.3h2.7v6.3zm12.9-8.1c-.5-.1-1-.2-1.6-.2h-7.4v-12.6h8.9v12.8zm2-14.8v-33.8h6.8v33.8h-6.8zm11.8 0v-33.8h8.6v33.8h-8.6zm10.6 20.1v-18.1h3.4v16.7c-1.1.4-2.3.8-3.4 1.4zm7.9-2c-.8 0-1.6.1-2.5.2v-16.3h3.4v16.1h-.9zm39.6-12.8c0 3.5-1.5 6.9-4.1 9.4-2.4 2.2-5.5 3.4-8.7 3.4h-23.9v-16.1h36.7v3.3z"/>
  <path d="M201.5 76.3c-2.4-2.3-5.9-3.6-9.5-3.4-6.2.3-11 4.9-11.3 10.8-.1 2.5 1.6 5.5 5 8.8 1.8 1.7 1.8 3.7 1.7 6.1v2.7c0 .5 0 1 .4 1.4.2.2.5.3.9.3l2.9-.2v-7.9l-3.8-4.4.3-.3c1.2-1.2 2.7-1.8 4.4-1.8h.1c1.7 0 3.2.7 4.4 1.9l.1.2-3.7 4.4v7.9h2.8c1.2 0 1.2-1 1.2-1.5v-2.7c0-2.5.7-4 2.4-5.6 2.4-2.1 5-5.9 5-9.1-.1-2.9-1.2-5.6-3.3-7.6zm-2.4 15.9c-2 1.7-2.8 3.6-2.8 6.3v3.2h-2v-6.5l4.1-4.8-.8-.8c-1.4-1.4-3.2-2.2-5.1-2.2h-.1c-1.9 0-3.7.7-5.1 2.1l-.9.9 4.1 4.8v6.6l-1.9.1h-.1s-.1-.2-.1-.7v-2.7c0-2.4 0-4.8-2-6.8-3.2-3.1-4.8-5.8-4.7-8 .3-5.4 4.7-9.6 10.4-9.9 3.3-.1 6.5 1 8.7 3.1 1.9 1.8 3 4.3 3 6.9-.1 2.9-2.4 6.4-4.7 8.4z"/>
  <path d="M202.6 74.9c-2.7-2.6-6.6-4-10.5-3.9-7 .3-12.8 5.6-13.1 12.1-.2 3.5 1.2 6.9 3.9 9.4 2 1.9 3 4.4 3 7.2v3.1c0 .5.2.9.5 1.2.4.4.9.6 1.4.6h9.5c1 0 1.9-.8 1.9-1.8v-2.9c0-2.7 1.2-5.3 3.2-7.1 2.7-2.4 4.2-5.7 4.2-9.2-.1-3.2-1.5-6.4-4-8.7zm-1 17.2c-2.2 2-3.5 4.8-3.5 7.8v2.9c0 .4-.4.8-.9.8h-9.5c-.3 0-.5-.1-.7-.3-.1-.1-.2-.3-.2-.5v-3.1c0-3-1.2-5.9-3.3-8-2.4-2.3-3.7-5.4-3.5-8.6.3-6 5.6-10.9 12.1-11.1h.6c3.5 0 6.8 1.3 9.2 3.6 2.3 2.2 3.5 5.1 3.5 8.1.1 3.2-1.3 6.1-3.8 8.4zm-192.7 5l2.7-.2v-7.3l-3.5-4.1.2-.2c1.1-1.1 2.6-1.7 4.1-1.6 1.5 0 3 .6 4.1 1.8l.1.1-3.4 4.1v7.4h2.6c1.2 0 1.2-1 1.2-1.4v-2.5c0-2.3.6-3.7 2.2-5.1 2.2-2 4.6-5.4 4.6-8.4 0-2.7-1.1-5.2-3-7-2.2-2.1-5.5-3.3-8.8-3.1-5.7.2-10.2 4.6-10.5 10-.1 2.4 1.5 5.1 4.6 8.1 1.6 1.6 1.6 3.4 1.6 5.6v2.5c0 .5 0 1 .4 1.3.2-.1.4 0 .8 0zm-.1-1s-.1-.1-.1-.6V93c0-2.2 0-4.5-1.9-6.3-3-2.8-4.4-5.3-4.3-7.4.2-5 4.3-8.9 9.5-9.1 3.1-.1 6 .9 8.1 2.9 1.8 1.7 2.7 3.9 2.7 6.3 0 2.5-2.2 5.8-4.3 7.7-1.8 1.7-2.5 3.4-2.5 5.9v2.9h-1.8v-6l3.8-4.5-.7-.8c-1.3-1.3-2.9-2-4.8-2.1-1.8 0-3.5.7-4.8 1.9l-.9.9 3.8 4.5v6l-1.8.3zm35.8-25.6h5.7v1h-5.7zm-.7-7.1v1.8c0 .3 0 .8.3 1.1.1.1.3.3.7.3l2.1-.2v-5.7l-2.6-3 .1-.1c.8-.8 1.9-1.2 3-1.2s2.2.5 2.9 1.3l-2.5 3v5.7H50c1 0 1-.9 1-1.2v-1.9c0-1.7.5-2.7 1.6-3.7 1.7-1.5 3.5-4.1 3.5-6.4 0-2-.8-3.9-2.3-5.4-1.7-1.6-4.1-2.5-6.7-2.4-4.3.2-7.8 3.5-8 7.6-.1 1.8 1.1 3.9 3.5 6.2 1.2 1.2 1.3 2.4 1.3 4.2zm3.3-16.9c2.3-.1 4.4.7 5.9 2.1 1.3 1.2 2 2.9 2 4.6 0 1.9-1.6 4.3-3.2 5.6-1.4 1.2-2 2.5-2 4.5v2.1h-1.1v-4.3l2.9-3.4-.6-.7c-1-1-2.3-1.6-3.6-1.6h-.1c-1.4 0-2.6.5-3.6 1.5l-.7.7L46 61v4.4l-1.1.1v-2.2c0-1.7 0-3.4-1.5-4.8-2.2-2.1-3.3-3.9-3.2-5.4.2-3.6 3.2-6.4 7-6.6z"/>
  <path d="M42.8 64.2v2.1c0 .4.1.7.4 1 .1.1.3.2.4.3V70h7.9v-2.4c.5-.2.8-.7.8-1.2v-2c0-1.8.8-3.6 2.1-4.8 1.9-1.7 3-4 3-6.5 0-2.3-1-4.5-2.7-6.2-1.9-1.8-4.6-2.8-7.4-2.7-4.9.2-9 4-9.2 8.5-.1 2.5.8 4.8 2.7 6.6 1.3 1.3 2.1 3 2 4.9zm4.5-19.1h.4c2.4 0 4.6.9 6.3 2.5 1.5 1.5 2.4 3.4 2.4 5.5 0 2.2-.9 4.2-2.7 5.7-1.6 1.4-2.5 3.4-2.5 5.5v2c0 .2-.2.4-.5.4h-6.5c-.1 0-.3-.1-.3-.1s-.1-.1-.1-.2v-2.1c0-2.1-.8-4.2-2.3-5.6-1.7-1.6-2.5-3.7-2.4-5.9.2-4.1 3.8-7.5 8.2-7.7z"/>
</svg>
